<?xml version="1.0" encoding="UTF-8"?>
<svg xmlns="http://www.w3.org/2000/svg" xmlns:xlink="http://www.w3.org/1999/xlink" width="39px" height="38px" viewBox="0 0 38 38" version="1.1">
<g id="surface1">
<path style="fill-rule:nonzero;fill:rgb(100%,100%,100%);fill-opacity:1;stroke-width:1;stroke-linecap:butt;stroke-linejoin:miter;stroke:rgb(100%,100%,100%);stroke-opacity:1;stroke-miterlimit:4;" d="M 2747.894696 4569.999932 C 2706.842065 4547.894669 2672.105223 4504.210459 2658.947329 4456.842039 C 2655.263118 4438.947302 2524.210489 3598.947315 2369.999965 2589.999961 C 2173.157862 1303.157875 2089.999969 737.894726 2093.157864 697.894726 C 2105.789442 494.210519 2406.842069 465.263151 2461.052595 663.157885 C 2465.263121 681.052621 2595.789435 1521.052609 2749.999959 2529.999962 C 2946.842061 3816.842048 3029.999955 4382.105198 3026.84206 4422.105197 C 3023.15785 4487.89467 2989.999955 4538.947301 2929.999956 4571.052563 C 2884.210483 4595.789405 2796.842064 4595.263089 2747.894696 4569.999932 Z M 2747.894696 4569.999932 " transform="matrix(0.00742188,0,0,-0.00742188,0,38)"/>
<path style="fill-rule:nonzero;fill:rgb(100%,100%,100%);fill-opacity:1;stroke-width:1;stroke-linecap:butt;stroke-linejoin:miter;stroke:rgb(100%,100%,100%);stroke-opacity:1;stroke-miterlimit:4;" d="M 1331.052612 3999.99994 C 1313.157875 3995.789414 1285.789455 3983.157835 1271.052613 3973.157836 C 1256.842087 3962.105204 972.105249 3665.263103 638.947359 3312.105214 C 199.999997 2847.894694 27.894736 2659.99996 15.789473 2629.999961 C -5.263158 2577.894698 -4.210526 2535.26312 18.947368 2484.210489 C 31.052631 2457.8947 222.10526 2246.842072 559.999992 1888.94734 C 1335.263138 1066.842089 1282.105244 1116.842089 1375.789453 1116.842089 C 1515.789451 1116.842089 1611.052608 1271.052613 1545.263135 1392.105242 C 1534.210503 1412.105242 1286.842086 1681.052607 995.263143 1989.99997 C 704.210516 2297.894703 465.263151 2555.26312 465.263151 2559.999962 C 465.263151 2565.26312 704.210516 2822.105221 995.263143 3129.999953 C 1286.842086 3438.947317 1534.210503 3707.894682 1545.263135 3727.894681 C 1619.999976 3865.2631 1485.263136 4035.789414 1331.052612 3999.99994 Z M 1331.052612 3999.99994 " transform="matrix(0.00742188,0,0,-0.00742188,0,38)"/>
<path style="fill-rule:nonzero;fill:rgb(100%,100%,100%);fill-opacity:1;stroke-width:1;stroke-linecap:butt;stroke-linejoin:miter;stroke:rgb(100%,100%,100%);stroke-opacity:1;stroke-miterlimit:4;" d="M 3704.210471 3999.99994 C 3584.210473 3972.105204 3517.894684 3833.157838 3575.263105 3727.894681 C 3585.78942 3707.894682 3834.210469 3438.947317 4125.263096 3129.999953 C 4416.842039 2822.105221 4655.263089 2565.26312 4655.263089 2559.999962 C 4655.263089 2555.26312 4416.842039 2297.894703 4125.263096 1989.99997 C 3765.263102 1607.894713 3587.894683 1413.157874 3572.10521 1382.105243 C 3513.157842 1261.052613 3605.78942 1116.842089 3744.210471 1116.842089 C 3837.89468 1116.842089 3786.842049 1068.947352 4559.999932 1888.94734 C 4896.842032 2246.842072 5088.947293 2457.8947 5101.052556 2484.210489 C 5125.263082 2535.789436 5125.263082 2584.210488 5101.052556 2635.789434 C 5088.947293 2662.105223 4896.842032 2873.157852 4559.999932 3231.052583 C 3949.999941 3877.894679 3864.210469 3966.842046 3829.999943 3984.210467 C 3795.263101 4002.105204 3741.052576 4008.947309 3704.210471 3999.99994 Z M 3704.210471 3999.99994 " transform="matrix(0.00742188,0,0,-0.00742188,0,38)"/>
</g>
</svg>
