<?xml version="1.0" standalone="no"?>
<!DOCTYPE svg PUBLIC "-//W3C//DTD SVG 20010904//EN"
 "http://www.w3.org/TR/2001/REC-SVG-20010904/DTD/svg10.dtd">
<svg version="1.0" xmlns="http://www.w3.org/2000/svg"
 width="500.000000pt" height="500.000000pt" viewBox="0 0 500.000000 500.000000"
 preserveAspectRatio="xMidYMid meet">

<g transform="translate(0.000000,500.000000) scale(0.100000,-0.100000)"
fill="#f7f7f7" stroke="none">
<path d="M2235 4665 c-1102 -144 -1915 -1063 -1915 -2165 0 -822 463 -1575
1197 -1946 521 -263 1122 -306 1680 -119 882 295 1483 1131 1483 2063 0 476
-154 937 -440 1317 -354 471 -897 781 -1488 850 -152 18 -379 18 -517 0z m630
-84 c229 -43 395 -100 595 -202 553 -281 967 -812 1100 -1409 51 -229 65 -516
35 -747 -99 -766 -633 -1433 -1365 -1706 -228 -85 -403 -117 -674 -124 -281
-7 -469 19 -705 96 -326 108 -594 273 -842 520 -320 320 -509 685 -596 1151
-26 138 -25 544 0 685 84 457 278 830 596 1145 286 285 603 465 982 560 201
50 296 60 544 56 171 -3 245 -8 330 -25z"/>
<path d="M3172 3794 c-13 -9 -24 -30 -28 -54 -6 -36 -11 -40 -61 -61 l-54 -22
-23 22 c-41 38 -72 28 -148 -47 -75 -76 -85 -107 -47 -148 l21 -23 -23 -55
c-20 -50 -26 -56 -51 -56 -17 0 -39 -10 -53 -25 -23 -22 -25 -32 -25 -113 0
-107 18 -142 74 -142 30 0 34 -4 55 -55 l23 -55 -21 -26 c-38 -48 -29 -73 53
-152 41 -40 82 -72 92 -72 11 0 32 11 48 24 l30 23 55 -22 c51 -21 56 -26 59
-57 6 -60 22 -68 137 -68 115 0 135 10 135 68 0 29 5 34 56 57 l56 25 30 -25
c16 -14 39 -25 50 -25 27 0 155 127 163 161 5 19 0 34 -19 56 -24 28 -25 33
-11 59 7 16 18 41 24 57 8 20 17 27 39 27 15 0 38 7 50 16 20 14 22 23 22 117
0 56 -4 107 -8 113 -11 17 -48 34 -74 34 -18 0 -27 10 -44 53 l-20 52 23 34
c13 19 23 41 23 49 0 8 -32 47 -72 88 -79 82 -104 91 -152 53 l-26 -21 -55 23
c-51 21 -55 25 -55 55 0 55 -36 74 -139 74 -62 0 -93 -4 -109 -16z m190 -90
l3 -46 60 -23 c33 -13 75 -29 92 -36 31 -12 34 -12 63 16 l30 29 50 -49 c28
-27 50 -53 50 -58 0 -4 -11 -19 -25 -33 -31 -31 -31 -33 -1 -92 13 -26 29 -64
35 -84 12 -36 14 -38 57 -38 l44 0 0 -80 0 -80 -44 0 c-43 0 -45 -2 -57 -37
-6 -21 -23 -62 -37 -91 l-25 -52 26 -28 c15 -16 27 -33 27 -38 0 -5 -22 -32
-50 -59 l-50 -49 -28 27 c-34 33 -41 33 -94 6 -23 -12 -60 -27 -82 -33 -40
-11 -41 -13 -44 -59 l-3 -47 -75 0 -74 0 0 39 c0 46 -6 51 -88 81 -34 12 -65
27 -68 31 -10 17 -38 9 -66 -18 l-28 -27 -55 54 -55 54 30 31 31 32 -29 64
c-16 35 -34 76 -40 91 -9 22 -18 27 -54 30 l-43 3 0 75 0 75 43 3 c36 3 45 8
54 30 6 15 24 55 39 90 l28 62 -29 33 -29 34 54 53 55 54 28 -27 c31 -30 48
-33 77 -14 11 8 43 22 70 32 69 25 75 32 75 76 l0 39 74 0 75 0 3 -46z"/>
<path d="M3190 3555 c-318 -89 -359 -521 -62 -667 60 -30 75 -33 152 -32 97 1
152 18 215 66 178 137 194 393 35 542 -95 89 -224 123 -340 91z m228 -86 c178
-86 215 -320 73 -466 -118 -122 -316 -116 -430 13 -145 165 -53 441 162 484
62 12 124 2 195 -31z"/>
<path d="M3277 3373 c-10 -16 -48 -313 -42 -323 10 -17 53 -11 59 8 11 39 37
261 34 288 -2 21 -9 30 -25 32 -11 2 -24 -1 -26 -5z"/>
<path d="M3093 3284 c-47 -35 -73 -62 -73 -74 0 -24 154 -142 175 -134 7 3 16
13 20 22 6 17 -15 40 -80 90 l-30 22 30 23 c67 50 86 72 80 90 -12 30 -47 19
-122 -39z"/>
<path d="M3357 3333 c-18 -17 -2 -43 48 -79 30 -21 55 -42 55 -45 0 -3 -25
-23 -55 -45 -56 -40 -66 -62 -40 -84 16 -14 16 -14 113 57 42 31 72 61 72 71
0 11 -32 42 -77 75 -73 54 -101 66 -116 50z"/>
<path d="M1970 3394 c-87 -19 -184 -68 -215 -108 -61 -79 -111 -270 -95 -357
11 -56 42 -123 74 -157 17 -20 22 -40 26 -120 4 -79 10 -108 33 -154 25 -50
27 -66 25 -138 l-3 -82 -255 -97 c-141 -53 -269 -106 -286 -118 -50 -36 -114
-112 -137 -161 -18 -39 -22 -73 -27 -207 -8 -233 -6 -478 3 -492 6 -10 289
-13 1358 -13 l1350 0 24 25 c23 22 25 31 25 124 l0 100 -34 28 -34 28 44 260
c24 143 44 283 44 311 0 61 -27 107 -80 138 -34 20 -49 21 -465 21 -416 0
-431 -1 -465 -21 -19 -11 -44 -34 -56 -51 l-20 -30 -115 44 c-63 24 -156 59
-206 79 l-93 36 0 73 c0 49 4 76 14 84 33 28 68 133 73 220 3 65 10 97 29 132
58 111 68 268 24 382 -68 178 -312 274 -560 221z m305 -74 c167 -57 248 -195
216 -367 -7 -36 -19 -82 -28 -102 l-15 -36 -24 50 c-13 28 -24 60 -24 71 0 30
-37 74 -75 90 -27 11 -42 11 -96 -2 -63 -15 -109 -15 -266 2 -60 6 -63 5 -92
-24 -17 -16 -33 -42 -36 -58 -4 -16 -16 -53 -27 -82 -23 -60 -34 -58 -67 12
-26 52 -26 116 -2 218 21 87 58 157 100 187 95 68 301 87 436 41z m-192 -366
c49 -4 100 -2 137 6 88 19 105 11 125 -57 9 -31 29 -80 43 -108 22 -41 26 -62
25 -122 -2 -100 -25 -163 -81 -221 -64 -65 -110 -85 -204 -90 -65 -3 -85 0
-131 21 -69 32 -132 97 -157 164 -27 73 -28 193 -1 237 11 17 29 60 41 96 29
87 35 93 84 86 23 -3 76 -9 119 -12z m-28 -653 c73 -14 157 0 228 36 l50 25
-5 -81 c-8 -144 -70 -201 -220 -201 -97 0 -136 16 -182 73 -29 36 -31 46 -35
129 l-3 89 53 -30 c30 -16 81 -34 114 -40z m-216 -123 c27 -78 107 -145 188
-156 l48 -7 0 -380 0 -380 -322 -3 c-178 -1 -323 0 -323 2 0 3 9 42 20 87 46
194 48 433 4 644 -9 42 -14 79 -11 81 7 8 361 143 374 144 6 0 16 -14 22 -32z
m761 -42 c96 -37 179 -71 184 -76 7 -7 -57 -445 -80 -546 -3 -11 -21 -28 -40
-39 -41 -22 -48 -44 -49 -147 l0 -78 -237 0 -238 0 0 380 c0 296 3 381 13 385
6 2 28 6 48 9 73 12 179 113 179 169 0 26 6 24 220 -57z m1201 -5 c16 -16 29
-40 29 -53 0 -13 -21 -150 -47 -305 l-47 -283 -483 0 c-456 0 -483 1 -483 18
0 17 85 534 96 580 2 13 16 35 29 48 l24 24 426 0 427 0 29 -29z m-2407 -160
c42 -185 39 -444 -7 -628 l-22 -88 -97 -3 -98 -3 0 279 c0 307 3 326 62 408
31 44 109 104 134 104 7 0 19 -29 28 -69z m2411 -636 l0 -80 -560 0 -560 0 -3
69 c-2 38 -1 75 2 83 5 11 101 13 563 11 l558 -3 0 -80z"/>
<path d="M3210 2024 c-46 -20 -87 -60 -112 -108 -30 -58 -23 -159 15 -212 117
-168 381 -104 395 96 5 71 -10 120 -51 167 -59 68 -166 92 -247 57z m143 -58
c104 -43 127 -180 42 -255 -61 -53 -139 -53 -201 1 -128 112 2 320 159 254z"/>
</g>
</svg>
